<?xml version="1.0" standalone="no"?>
<!DOCTYPE svg PUBLIC "-//W3C//DTD SVG 20010904//EN"
 "http://www.w3.org/TR/2001/REC-SVG-20010904/DTD/svg10.dtd">
<svg version="1.0" xmlns="http://www.w3.org/2000/svg"
 width="700.000000pt" height="700.000000pt" viewBox="0 0 700.000000 700.000000"
 preserveAspectRatio="xMidYMid meet">
<metadata>
Created by potrace 1.14, written by Peter Selinger 2001-2017
</metadata>
<g transform="translate(0.000000,700.000000) scale(0.100000,-0.100000)"
fill="#000000" stroke="none">
<path d="M695 6984 c-79 -17 -200 -66 -282 -116 -74 -44 -194 -157 -249 -234
-52 -73 -114 -203 -140 -294 -18 -63 -19 -167 -21 -2820 -2 -2358 0 -2764 12
-2815 81 -341 309 -581 642 -677 l78 -23 2765 0 2765 0 78 23 c247 71 432 217
550 432 40 74 85 200 95 269 9 60 9 5471 0 5536 -10 72 -35 149 -78 240 -108
225 -311 394 -563 468 l-72 22 -2755 2 c-2401 1 -2764 0 -2825 -13z"/>
</g>
</svg>
