<svg width="160" height="160" fill="none" xmlns="http://www.w3.org/2000/svg"><path d="M119.821 47.011h-79.49a3.188 3.188 0 00-3.189 3.188v46.413a3.187 3.187 0 003.188 3.189h79.492a3.188 3.188 0 003.189-3.189V50.199a3.189 3.189 0 00-3.19-3.188zM45.392 80.236h-.226a3.19 3.19 0 01-3.189-3.189v-7.283a3.188 3.188 0 013.19-3.188h.225v13.66zm61.231 15.172H50.341V51.402h56.282v44.006zm8.777-17.856a4.146 4.146 0 01-4.146-4.147 4.146 4.146 0 114.146 4.147zM91.654 43H68.497v2.758h23.157V43zm-8.046 64.861v-2.973h8.046v-2.758H68.498v2.758h8.045v35.246a6.068 6.068 0 00-3.635 5.559V160h14.335v-14.307a6.062 6.062 0 00-3.636-5.557v-27.99h4.796l5.051 1.213v-6.711l-5.05 1.213h-4.796z" fill="#363636"/></svg>